# xmcd
#
# Track frame offsets:
#	150
#	6847
#	34304
#	55206
#	75718
#	96913
#	122158
#	134833
#	160738
#	178280
#	197847
#
# Disc length: 2929 seconds
#
# Revision: 1
# Processed by: cddbd v1.5.2PL0 Copyright (c) Steve Scherf et al.
# Submitted via: audiograbber 1.83.01
#
DISCID=9c0b6f0b
DTITLE=Kadavrik - Wine will turn to blood again
DYEAR=2009
DGENRE=Death Metal
TTITLE0=Kadavrik Ascending
TTITLE1=Hope springs eternal
TTITLE2=Wherever my path leads
TTITLE3=Dead body testament
TTITLE4=From your brred
TTITLE5=Insight down
TTITLE6=Krunk
TTITLE7=Random reality
TTITLE8=On the edge to lose it all
TTITLE9=In nothing you believe
TTITLE10=Wine will turn to blood again
EXTD=
EXTT0=
EXTT1=
EXTT2=
EXTT3=
EXTT4=
EXTT5=
EXTT6=
EXTT7=
EXTT8=
EXTT9=
EXTT10=
PLAYORDER=
